<svg width="320" height="320" viewBox="0 0 320 320" fill="none" xmlns="http://www.w3.org/2000/svg">
<path d="M298.134 176.452V122.362C298.134 113.705 300.464 109.822 305.725 109.822H320V105H0V109.822H20.5715V209.396H0V214.217H320V209.396H279.083C292.177 203.878 298.134 192.066 298.134 176.452ZM183.881 109.822C190.453 109.822 192.638 111.763 192.638 115.647C192.638 118.187 191.472 121.617 189.724 125.954L172.357 166.259L148.258 109.822H183.881ZM123.445 109.822L151.77 175.643V209.379H104.088V109.822H123.445ZM81.3151 155.499H43.3443V109.822H81.2989V155.515L81.3151 155.499ZM43.3605 161.405H81.3151V209.379H43.3443V161.405H43.3605ZM174.559 209.379V176.21L197.218 123.834C201.75 112.637 205.1 109.806 210.069 109.806H220.217V175.708C220.217 192.115 228.1 203.911 241.145 209.396H174.559V209.379ZM266.734 206.58C245.418 206.58 242.99 192.859 242.99 173.75V109.822H282.482C289.928 109.822 292.258 113.705 292.258 122.362V177.342C292.258 196.84 280.88 206.596 266.734 206.596" fill="white"/>
</svg>
