<svg width="320" height="320" viewBox="0 0 320 320" fill="none" xmlns="http://www.w3.org/2000/svg">
<path d="M135.415 304.807H140.742C141.484 304.807 141.209 304.144 141.209 304.144C139.039 294.564 140.17 287.067 140.587 284.836C140.587 284.836 140.799 284.172 140.029 284.172H134.765C134.044 284.172 134.319 284.737 134.319 284.737C136.107 292.086 135.415 301.397 134.948 304.087C134.948 304.087 134.623 304.807 135.415 304.807Z" fill="white"/>
<path d="M155.156 283.58C146.67 284.398 147.193 294.338 147.193 294.338C147.709 303.339 157.043 305.019 157.043 305.019C154.492 311.923 147.681 313.97 147.681 313.97C146.077 314.606 147.25 315.058 147.25 315.058C149.285 315.728 152.252 314.549 152.252 314.549C164.716 308.972 165.034 295.919 165.034 295.919C165.295 282.619 155.149 283.587 155.149 283.587M158.18 301.878C154.118 301.998 153.142 295.679 153.142 295.679C152.104 288.74 154.796 288.352 154.796 288.352C157.65 287.455 158.894 293.357 158.894 293.357C160.279 300.155 158.173 301.871 158.173 301.871L158.18 301.878Z" fill="white"/>
<path d="M186.592 291.634C186.592 291.634 185.475 283.382 177.731 283.474C177.731 283.474 170.079 283.276 169.733 293.886C169.733 293.886 169.443 305.068 179.109 304.581C179.109 304.581 188.584 303.995 186.592 291.641M179.236 301.045C175.576 302.393 175.166 294.91 175.166 294.91C174.778 287.773 177.689 287.074 177.689 287.074C180.628 286.333 181.455 291.585 181.455 291.585C182.783 299.71 179.236 301.045 179.236 301.045Z" fill="white"/>
<path d="M188.867 307.44C197.042 309.057 199.211 303.261 199.211 303.261C201.818 295.065 191.552 294.656 191.552 294.656L193.205 284.088C193.205 284.088 203.507 284.575 206.263 283.205C206.263 283.205 206.906 282.775 206.545 284.321C206.545 284.321 205.973 287.829 202.617 288.09L197.558 288.514L197.077 291.5C197.077 291.5 205.839 291.295 205.669 300.762C205.669 300.762 205.344 308.061 196.794 309.862C196.794 309.862 192.788 310.744 188.167 308.859C188.167 308.859 187.461 308.513 187.835 307.963C187.835 307.963 188.167 307.285 188.874 307.433L188.867 307.44Z" fill="white"/>
<path d="M158.71 109.473C159.36 108.689 160.194 109.24 160.894 109.473C161.551 109.663 161.572 110.941 161.953 111.605C162.158 112.064 163.437 113.363 163.557 113.758C164.589 118.516 163.557 124.742 161.416 128.357C160.809 129.465 159.827 130.051 159.134 130.086C158.237 130.164 157.947 128.844 157.629 128.357C156.258 126.444 157.297 121.89 157.629 119.758C157.99 117.019 155.842 112.614 157.212 110.616C157.212 110.616 158.689 109.473 158.71 109.473Z" fill="white"/>
<path d="M93.9884 114.485C95.1472 114.139 96.8076 114.718 97.5142 114.485L99.0686 113.85C100.863 112.699 102.651 113.031 104.474 113.214C105.385 113.313 108.084 114.485 108.982 114.52C110.423 114.69 117.228 115.424 124.47 116.462C124.406 116.441 128.335 115.954 127.339 114.859C127.96 115.565 127.233 114.266 125.749 113.758L125.247 113.214C125.304 113.158 123.989 112.12 126.328 111.344C125.438 111.605 127.861 110.991 128.335 110.475C129.275 109.466 127.897 108.386 127.897 108.386C124.477 107.235 120.626 109.431 115.489 108.887C112.953 108.675 109.363 107.228 105.795 107.814C101.909 108.506 96.1929 110.694 93.4726 112.812C93.4726 112.812 92.1796 115.071 94.0025 114.478L93.9884 114.485Z" fill="white"/>
<path d="M137.294 86.4734C140.792 86.2616 140.947 89.8901 141.032 89.516C140.629 92.0997 134.277 92.3327 132.765 94.3517C128.321 100.133 130.165 105.654 119.672 106.247C119.672 106.247 117.56 105.76 118.379 104.891C119.036 104.193 121.58 103.522 122.52 102.943C123.876 102.166 123.77 99.9851 124.661 98.6368C124.851 98.305 126.031 97.8885 126.321 97.599C129.26 93.6175 129.6 89.5866 134.8 87.2217C135.012 87.0946 136.906 86.544 137.294 86.4734Z" fill="white"/>
<path d="M170.913 70.9143C172.107 70.2437 173.294 70.9143 174.078 71.6273C174.53 71.952 178.381 81.1505 178.558 82.0682C179.045 85.4144 179.42 93.1232 178.516 95.6011C177.223 99.0532 174.029 101.708 174.721 107.828C175.096 111.428 176.686 114.231 178.205 117.358C178.381 117.881 179.964 120.93 180.042 121.573C180.635 124.862 178.834 129.119 178.558 131.781C177.752 138.416 180.409 144.445 179.342 150.77C178.897 153.502 178.014 154.879 176.523 156.566L175.329 157.583C174.997 158.239 174.403 158.465 173.803 158.931L173.075 159.665C171.951 159.941 171.838 160.597 171.379 160.647C168.532 161.282 167.952 159.623 168.136 160.004C165.253 151.886 170.086 142.405 167.613 134.562C167.041 132.762 164.914 130.969 164.631 129.042C163.649 122.017 170.227 118.311 170.136 113.589C170.136 110.221 165.698 105.844 164.695 102.526C163.437 98.6367 162.611 91.189 164.321 86.3321C164.723 85.1461 166.249 83.1554 166.666 81.5811C167.472 78.5456 168.722 76.0536 169.153 74.0346C169.302 73.4204 169.69 72.538 170.016 71.945C170.129 71.7473 170.715 71.0202 170.92 70.9073L170.913 70.9143Z" fill="white"/>
<path d="M254.825 54.1553C259.566 53.5976 261.707 55.4754 259.482 59.5134L258.549 60.3958C258.167 60.537 256.903 62.1889 256.648 62.4219C254.345 64.1161 252.183 65.1539 250.437 67.2999C249.83 68.0129 249.342 69.8484 248.6 70.4696C247.413 71.3238 242.87 73.3287 241.711 73.5405C235.96 74.4582 228.138 68.726 227.283 65.4151C226.541 62.5701 227.283 59.8099 228.52 59.1604C230.463 58.1721 235.571 58.6875 237.316 58.5039C241.754 58.1721 244.545 58.4192 247.929 57.2403C249.992 56.5767 252.345 54.4447 254.825 54.1553Z" fill="white"/>
<path d="M230.321 52.235C230.321 52.235 233.02 53.3575 235.437 52.7786C237.147 52.355 240.312 50.9078 241.902 50.6255C242.87 50.3925 244.227 50.8867 245.159 50.6255C247.781 49.8207 252.614 44.6885 246.834 44.1379C244.728 43.9402 238.468 46.298 236.518 46.8487C234.561 47.3428 233.345 47.6676 231.72 48.5218C231.289 48.7759 229.042 50.6114 229.311 50.2937C229.311 50.2937 227.834 51.5361 230.321 52.2421V52.235Z" fill="white"/>
<path d="M188.959 61.9419C187.27 61.7019 187.27 58.8711 183.016 59.7888C180.049 60.4171 179.236 64.7728 174.912 64.6598L172.764 63.608C170.892 63.1632 169.535 63.8127 167.889 63.0008C160.279 59.4429 173.788 41.2014 178.155 41.4414C178.388 41.4414 180.635 42.2603 180.911 42.5074C182.267 43.6863 182.267 48.7761 183.539 50.6186C184.514 51.9105 186.04 51.7976 187.355 52.7718C188.732 53.8165 191.333 57.4027 191.651 59.2805C191.651 59.2805 192.357 62.3937 188.952 61.9419H188.959Z" fill="white"/>
<path d="M259.248 209.358C259.334 209.258 259.334 209.243 259.248 209.358Z" fill="white"/>
<path d="M259.248 209.357L259.227 209.37C259.227 209.37 259.248 209.37 259.248 209.357Z" fill="white"/>
<path d="M319.872 48.9243C319.872 48.9243 319.872 48.9948 319.872 49.0301C319.872 49.0372 319.9 49.0443 319.9 49.0513C319.872 48.9948 319.872 48.9596 319.865 48.9243H319.872Z" fill="white"/>
<path d="M251.681 43.785C251.723 43.6932 251.773 43.5874 251.808 43.5097C251.667 43.7921 251.646 43.8415 251.681 43.785Z" fill="white"/>
<path d="M218.818 135.939C218.818 135.939 218.748 135.939 218.726 135.918C218.818 135.981 218.839 135.981 218.818 135.939Z" fill="white"/>
<path d="M156.202 63.2901C153.256 64.942 146.826 67.4693 145.476 70.3213C144.727 71.8179 144.727 73.1168 144.127 74.9169C144.042 75.1076 143.243 75.4182 143.003 75.9688C139.866 75.9688 137.103 75.7711 134.383 76.5053C132.256 77.1124 129.19 79.3573 126.823 79.7668C122.025 80.5927 118.358 78.4608 113.857 79.2161C111.851 79.5691 110.565 81.6446 108.918 82.4776C107.505 83.1482 106.94 83.1482 105.838 84.1507L104.841 85.3013C104.679 85.732 104.191 86.8262 103.88 87.3415C102.905 88.8028 102.51 90.2994 102.276 91.8878C102.036 93.4197 101.146 97.1047 100.348 98.6295C99.9589 99.3637 97.9311 101.023 97.6343 101.7C97.4789 102.159 97.0196 102.618 97.6343 103.31C96.9277 102.548 97.0691 104.058 100.962 104.27C105.244 104.355 114.564 101.503 114.564 101.503L119.036 99.0955C119.898 98.4248 123.368 95.8058 124.138 94.8881C127.395 90.8571 136.114 76.1312 142.897 79.9856L144.12 80.8469C145.738 83.5718 143.696 91.3371 142.48 93.1091L140.947 94.9375C139.739 95.3328 138.891 98.4601 138.707 99.9214C138.425 102.244 139.096 104.348 139.273 105.64C139.626 108.435 139.916 111.965 138.184 115.417C137.81 116.087 136.835 117.281 137.089 119.158C137.414 121.276 140.424 122.822 140.855 124.58C141.117 125.462 141.887 125.597 140.855 127.284C140.283 128.194 137.803 129.733 137.089 130.517C136.114 131.512 136.969 133.065 137.612 133.68C139.477 135.367 141.025 135.579 142.473 137.52C144.544 140.174 144.423 142.476 148.981 142.913C152.556 143.245 157.608 143.443 155.474 138.579L154.4 136.765C153.128 133.588 150.903 130.764 150.606 127.284C150.189 122.857 153.75 120.613 152.252 117.041C151.058 114.294 145.66 114.605 145.208 111.04C144.982 109.049 147.002 104.835 147.384 102.936C147.801 100.345 147.108 98.7001 147.949 96.4764C148.486 94.881 150.853 93.095 151.115 91.1113C151.616 87.5533 148.868 85.3013 150.062 81.3975C150.655 79.3856 153.807 79.6115 154.958 78.136C156.456 76.1312 155.63 73.3709 156.548 70.5613C156.64 70.2365 157.41 68.5564 157.566 68.267C157.474 68.1399 158.187 64.6525 158.187 64.6525C157.721 62.4641 156.357 63.3536 156.195 63.283M121.969 91.7748C118.944 92.4667 118.676 86.0214 111.391 88.5346C111.017 88.6687 108.975 90.5465 108.798 90.8501C107.95 92.7702 108.41 97.6765 107.449 98.1495C107.449 98.1495 104.622 98.8484 105.173 95.2763C106.043 89.6005 107.138 88.5416 110.006 86.1485C110.395 85.8379 111.476 85.0331 112.027 84.906C115.461 84.1295 121.792 85.4284 122.93 87.1721C123.905 88.6122 121.834 91.8101 121.969 91.7748Z" fill="white"/>
<path d="M319.879 49.0302C319.377 46.39 312.199 46.5806 309.309 43.0579C308.228 41.6531 309.026 40.8836 309.309 39.8318C310.128 36.7539 316.685 38.5752 318.219 35.8432C318.84 34.6996 319.045 31.3111 318.636 30.8451C314.53 25.8118 305.861 28.2049 299.728 25.7694C296.788 24.5623 293.107 22.1126 290.005 20.9408C286.105 19.4512 283.095 19.2324 279.202 17.6934C278.319 17.3122 276.588 16.0415 275.655 15.6603C271.324 13.9237 267.883 13.5707 263.572 11.7353C263.057 11.5447 261.742 10.7964 261.17 10.5634C259.446 9.82924 258.902 9.72335 257.058 9.04565C250.381 6.63133 241.874 4.49231 232.187 5.10648C227.947 5.33944 223.065 4.54879 216.522 6.41248C214.261 6.98429 211.103 8.93271 208.983 9.60335C207.485 10.0481 206.199 10.3093 204.842 10.9023C202.963 11.6647 201.295 12.7589 198.716 13.3731C191.29 15.0391 181.384 13.2107 173.852 14.4602C167.323 15.5121 163.557 19.6277 158.187 21.4773C156.548 22.0209 155.87 21.8514 154.259 22.4374C153.319 22.7621 151.093 23.3551 150.344 23.7716C148.105 24.9223 146.642 25.2682 144.12 26.3271C142.855 26.8989 141.35 28.0496 140.127 28.6285C138.312 29.525 138.206 29.7721 136.708 30.8593L135.485 31.7558C135.485 31.7558 132.843 34.0642 132.525 34.4666C131.479 35.5608 130.469 37.0715 129.564 38.2222C126.816 41.4201 122.689 45.437 119.277 47.9148C118.033 48.8114 117.157 48.6208 116.069 49.5738C114.776 50.555 113.638 51.6069 112.409 52.5458C109.575 54.5718 106.742 55.9202 103.626 57.6215L101.619 58.9558C98.9768 60.6924 99.0828 61.3913 96.3413 63.1208C94.5537 64.335 93.7764 66.1705 92.1301 67.5753C91.042 68.4083 89.7984 71.0485 89.0707 72.171C85.6721 77.1408 84.4002 84.4614 81.9838 90.6172C81.256 92.368 75.3632 100.86 73.8935 101.404L72.8054 102.435C71.9646 103.141 71.9646 103.352 71.2015 104.101C69.4563 105.647 67.6969 106.536 66.3544 108.428C65.2522 109.897 64.6092 111.626 63.6059 113.257C62.0585 115.791 59.5148 118.601 58.2289 121.368C57.706 122.392 57.3315 123.415 56.9641 124.397C56.8298 124.538 56.7309 124.714 56.6885 124.714C56.0314 125.554 54.8868 129.035 54.8868 129.035C53.6927 131.816 50.8381 133.376 47.065 138.755C42.656 139.073 27.4648 135.219 17.1276 130.326C19.4452 132.896 31.04 140.697 44.6203 142.179C43.7159 143.506 43.6452 144.862 42.0131 145.285C36.5795 146.62 27.1397 143.655 14.4427 139.228C15.1775 141 26.3554 147.551 42.8609 148.554C40.4162 151.42 17.7423 150.714 0.014475 145.871C-0.656767 147.728 22.1796 152.811 34.7212 152.641C32.5733 153.736 26.9348 155.02 23.3031 156.319C17.594 155.684 9.60971 154.689 8.06232 154.11C8.42267 155.267 14.0752 156.806 18.7527 157.886C14.2519 159.496 7.58892 160.414 4.9958 160.964C6.88235 161.444 14.1176 160.287 21.7133 158.458C28.3692 159.743 38.565 161.063 44.1752 160.816C42.762 161.515 37.491 164.918 33.3293 167.346C22.6813 168.349 11.0935 169.238 8.59931 169.542C9.99832 169.76 19.3392 169.909 29.2948 169.655C23.2183 173.212 16.7319 176.933 13.6089 178.345C18.2299 177.166 26.4756 174.017 34.8979 169.499C43.2566 169.196 51.0996 168.511 54.3639 167.346C53.2475 169.782 46.4927 181.43 40.1972 184.14C42.9104 183.689 51.6436 181.232 56.9217 168.024C58.7941 168.829 60.928 169.316 63.4221 169.457C64.8141 171.546 68.1067 176.933 74.3457 177.236C75.6176 180.851 87.1912 199.706 103.449 192.358C98.7578 189.809 95.9103 187.162 93.5998 179.644C100.814 179.185 119.905 189.64 125.657 212.265C121.135 210.74 115.475 208.128 114.875 205.869C113.631 211.1 112.819 217.842 124.399 229.497C124.618 231.989 124.576 234.982 125.113 237.799C127.028 239.79 129.232 241.286 131.281 243.016C131.423 246.285 130.963 250.81 139.59 253.323C142.523 255.751 151.941 258.335 153.319 259.944C156.131 260.855 160.3 261.025 163.345 260.855C163.345 260.855 167.436 260.163 168.532 258.603C170.574 258.49 173.343 258.427 185.864 245.106C188.492 241.964 185.864 224.739 186.493 220.567C187.715 217.517 188.266 214.715 189.941 210.98C189.941 210.98 191.637 207.302 194.83 205.813C195.049 205.707 195.233 205.707 195.501 205.636C202.708 204.006 212.092 210.747 216.536 212.632C218.154 213.31 219.002 212.95 220.302 213.734C220.945 214.072 221.835 215.534 222.492 215.908C224.082 216.797 225.608 216.55 227.382 217.503C229.961 218.943 235.211 226.525 239.782 225.643C241.195 225.297 242.319 222.057 243.548 221.259C245.682 219.96 248.671 220.08 250.572 218.598C252.748 216.875 251.858 214.962 252.19 212.625C252.19 212.526 253.2 211.432 253.292 210.973C254.352 210.867 256.705 210.973 258.174 210.493C258.365 210.423 258.98 209.71 259.234 209.427C260.167 208.46 259.489 207.422 259.234 206.639C258.909 205.778 256.705 204.754 256.012 203.999C254.387 202.382 251.61 200.045 250.572 198.076C250.084 197.087 250.699 196.876 250.013 195.859C249.3 194.737 247.413 193.565 246.834 192.125C244.749 187.494 245.576 177.159 244.665 175.719C243.81 174.328 242.75 174.511 241.902 173.212C240.107 170.375 242.319 161.204 242.481 157.569C242.637 154.653 239.782 156.468 239.782 156.468C237.415 162.292 237.67 164.875 237.083 173.212C236.998 173.947 235.995 178.401 235.995 179.178C235.96 182.093 237.67 187.028 236.511 190.515C236.129 191.638 233.783 193.833 230.576 193.748C229.367 193.748 223.312 192.181 221.941 191.595C221.673 191.468 220.394 189.993 220.288 189.95C217.285 187.557 216.656 189.802 216.522 190.988C216.43 192.245 216.932 192.478 217.179 193.169C217.285 193.861 218.507 196.445 218.387 196.664C218.345 196.925 217.292 199.763 211.675 196.445C207.443 193.882 203.26 186.844 203.034 185.623C202.447 182.912 203.288 180.879 203.804 179.947C205.916 178.034 208.432 180.681 210.537 181.825C211.074 182.107 212.367 183.018 213.017 183.145C214.261 183.357 216.246 182.912 216.522 182.912C224.725 182.439 233.225 185.404 234.681 179.898C235.592 176.446 232.187 174.589 231.586 173.156C230.816 171.412 231.212 171.306 230.773 169.365C230.703 169.224 230.138 167.967 230.01 167.812C229.177 166.372 229.777 165.115 228.943 163.506C228.089 161.748 225.658 160.682 224.648 159.178C223.248 157.181 223.248 154.689 221.376 153.227C218.606 150.961 207.534 147.671 206.248 145.102C204.143 141.022 206.736 133.524 205.711 128.399C205.153 125.392 204.185 123.761 202.341 121.905C201.635 121.185 201.295 120.104 201.557 119.13C202.03 117.337 202.984 117.824 203.535 113.8C203.881 111.598 203.33 109.106 203.535 106.797C203.549 106.423 204.602 102.894 204.666 102.477C205.153 96.4554 204.369 90.1513 203.034 85.7816C202.398 83.6637 200.433 81.8283 199.776 79.8093C199.204 78.1221 199.889 77.1479 199.204 75.4677C198.667 73.9923 196.78 72.9616 196.031 71.7404C194.562 69.5943 194.993 65.9375 192.753 64.7021C191.107 63.7844 190.527 65.0621 190.626 64.7021C190.075 66.6788 190.195 68.606 191.163 71.1615C191.552 72.2628 193.58 73.8652 193.905 74.9595C194.321 76.9502 193.58 79.3716 193.905 81.4471L194.943 83.6214C195.77 89.0359 192.824 96.2224 190.633 99.2439C189.093 101.249 184.444 103.811 184.168 106.805C183.928 108.675 184.698 108.739 185.171 109.522C185.871 110.518 188.097 111.81 188.443 112.749C188.69 113.454 188.966 113.313 189.241 114.012L189.524 115.481C189.898 119.257 184.966 120.112 187.362 124.644C188.04 125.95 190.365 125.95 191.658 126.776C194.11 128.329 198.773 132.706 199.218 136.454C199.423 138.106 199.211 146.796 198.73 147.834C197.607 150.234 191.531 151.173 192.223 155.931C192.986 161.127 206.701 159.665 210.551 162.383C212.381 163.668 212.756 166.442 213.314 168.927C213.625 170.262 212.283 170.713 211.682 171.017C210.233 171.864 209.195 171.215 207.358 171.61C202.899 172.514 195.777 174.504 193.912 178.091C191.559 182.213 194.329 187.875 193.332 192.619C192.35 196.918 189.121 202.142 186.797 205.622C185.362 207.733 183.546 209.816 182.868 212.781C181.271 219.148 182.387 226.673 181.921 234.142L181.836 234.213C181.836 234.213 182.112 238.074 179.498 240.898C176.53 244.153 166.242 253.775 158.951 253.775C156.244 253.69 155.135 252.8 152.189 250.654C150.323 250.506 146.041 249.475 143.576 246.892C142.798 245.515 134.743 237.354 139.802 235.018C144.572 232.829 152.281 237.601 155.849 239.903C157.297 239.903 167.719 240.432 178.791 225.925C178.275 218.336 177.646 208.608 176.813 206.851C175.661 203.123 169.372 196.551 168.023 192.612C167.189 189.414 165.691 183.145 166.659 178.796C166.235 173.954 163.176 172.888 161.897 168.963C161.544 167.974 161.134 167.198 160.915 166.894C160.533 165.468 160.272 164.205 159.396 162.906C157.474 159.983 155.601 159.334 153.842 156.468C152.005 153.495 152.337 149.782 149.511 147.834C147.956 146.789 145.865 146.697 144.127 145.681C142.862 144.925 141.265 143.097 139.802 142.448C138.1 141.685 137.626 141.466 135.895 140.704C135.047 140.294 133.514 139.61 132.772 139.221C132.016 138.784 131.253 139.165 130.61 138.642C128.526 136.871 130.024 135.275 128.992 132.211C128.893 131.83 128.073 131.816 127.89 131.124C127.028 130.891 125.509 129.515 124.336 130.341C122.725 131.527 122.265 131.181 121.262 133.659C120.683 135.289 119.58 140.076 118.485 141.247C117.517 142.405 116.288 144.015 114.755 145.095C113.32 145.829 112.062 145.751 112.062 145.751L108.021 146.337L106.007 149.436C106.007 149.436 103.81 149.14 102.644 149.14C102.319 149.888 99.648 151.935 98.8143 152.662C95.3945 154.667 93.2889 153.248 93.0628 152.514C92.8862 151.872 91.8051 150.516 94.1227 149.14C102.043 146.923 111.759 136.32 112.571 134.033C111.561 135.572 95.1684 144.622 92.1372 145.836C95.3945 138.12 115.482 126.818 116.705 125.477C111.561 126.253 94.4477 136.588 91.473 141.156C88.6255 145.758 85.2764 144.467 82.1251 144.339C79.0586 144.241 79.3129 147.537 79.1716 149.542C79.1292 151.526 77.6101 155.529 78.8961 156.249C80.9946 158.042 86.52 150.735 88.2793 154.674C89.2403 159.058 77.8715 158.868 77.9704 162.412C77.4264 164.282 88.463 164.932 90.4909 166.923C86.951 169.513 78.2672 170.346 75.6812 170.473C74.0702 170.6 72.6146 170.537 71.7879 170.41C70.3536 170.156 68.4741 168.85 66.8137 166.153C63.6694 160.442 68.9829 156.517 69.0606 155.049C69.1878 153.531 68.4671 154.343 68.3681 151.942C68.2763 149.542 70.9683 149.147 71.6537 148.646C72.4168 148.109 71.4559 147.453 71.6325 145.13C73.0315 139.878 81.6022 133.828 79.4119 132.141C77.4193 131.089 73.2576 135.67 71.6466 137.753C65.7538 145.342 58.886 142.963 56.5543 143.055C51.3539 143.337 52.2654 137.661 55.9042 138.057C60.0942 137.195 59.7833 131.407 62.758 131.985C63.7189 136.221 59.0273 136.814 61.2176 137.753C64.2135 138.932 64.4961 135.021 65.45 133.376C66.3473 131.703 70.5585 128.103 70.0851 127.192C68.8627 126.769 65.7538 128.978 64.3478 130.072C60.928 121.538 69.5481 115.043 69.9721 112.516C72.7983 108.054 88.6185 102.35 88.9082 95.58L89.3392 95.2059C89.3392 95.2059 89.6359 95.0223 90.1164 95.813H90.1517C90.2577 96.2224 90.3354 96.6601 90.4556 97.119C90.4909 97.6767 90.4273 98.1708 90.4273 98.1708L90.498 97.5143C90.6181 98.5803 90.5757 99.498 90.6181 99.2721V100.296C90.7664 100.903 91.5649 101.22 91.6921 101.277C92.0171 101.22 92.8932 100.945 93.7058 100.006C93.833 99.8722 94.7515 98.9897 94.7515 98.7779C96.2706 97.6696 96.5462 97.5072 97.6131 95.9965C100.326 92.0503 95.0907 86.2545 96.5391 80.9247C97.5354 77.3808 100.842 73.1946 100.842 73.1946C101.739 71.1685 100.319 71.1897 100.319 71.1897C98.2349 70.8156 96.7794 73.0393 97.0903 72.7499C94.4194 75.2559 93.621 76.4843 91.6779 79.8304C91.6779 79.8304 90.0457 81.3059 89.5653 79.2798C88.6255 75.9336 92.4269 69.3684 93.6139 68.5213C95.8326 67.0035 98.0865 66.347 100.877 65.2104C102.276 64.6245 104.354 62.3796 105.753 62.0054C106.438 61.7654 107.187 61.6242 107.894 62.0054C107.894 62.0054 108.947 62.7749 108.459 65.2104C108.459 65.2104 107.392 68.133 107.767 69.2131C107.993 69.9332 107.894 70.625 109.547 70.625C113.426 70.6956 122.096 69.799 124.639 68.4366C125.219 68.2036 125.784 67.3564 126.3 66.8552C127.098 66.0434 126.893 64.8292 126.3 64.7162L124.639 64.1656C125.911 63.975 117.326 63.9115 118.711 63.6644C117.206 63.9185 120.739 59.6688 120.329 57.6498C120.153 56.6897 118.471 56.2944 118.167 55.5319C117.991 55.0519 117.079 54.3389 118.167 53.9012L119.411 53.3788C119.828 53.0752 120.273 52.574 120.866 52.2987C123.58 51.0351 128.462 51.6563 130.596 52.2987C130.829 52.4117 134.312 53.3788 135.471 56.6191C135.775 57.5368 136.015 58.5463 136.545 59.344C138.177 61.5748 142.933 62.3796 145.731 59.7252C146.289 59.217 146.967 57.9463 147.377 57.2121C150.147 50.8445 146.041 46.51 140.848 44.7451C138.764 44.0039 135.372 43.7921 132.751 43.1144C130.9 42.5991 132.009 41.0531 132.539 40.5871L133.33 39.8883C134.355 38.3705 137.57 37.0151 138.736 36.6621C141.597 35.5749 144.409 34.5019 148.451 36.1468C149.051 36.3515 150.634 37.5869 151.093 37.721C154.167 38.4834 155.326 38.7164 158.166 37.2339C159.304 36.6833 159.134 36.535 159.24 36.1891C160.251 33.3018 158.244 31.3746 158.3 31.6852C157.7 27.7955 168.814 32.5959 170.545 30.1462C172.178 27.9296 171.118 23.694 173.266 22.0703C173.513 21.9362 174.778 21.0396 174.884 21.0043C176.954 20.5737 178.763 21.4279 180.409 22.0703L182.168 22.9103C185.673 24.3505 188.711 25.127 190.605 28.0002C191.792 29.878 191.573 32.5959 192.732 34.516C193.226 35.3208 194.385 35.8503 194.972 36.6762C195.466 37.2621 196.427 37.6575 197.077 38.0246C198.073 38.6529 198.462 38.907 199.755 39.3164C200.716 39.7047 202.101 41.1448 203.012 41.519C206.305 42.8603 210.262 42.6697 213.823 42.585C215.943 42.5003 217.2 43.7356 219.2 43.1356C220.231 42.7897 219.935 40.9684 219.292 40.1989C217.999 38.554 217.024 38.9423 214.883 37.7351C214.049 37.2268 212.996 35.5608 212.169 35.0667C209.704 33.4571 206.128 33.2383 204.637 30.7322C204.433 30.3369 204.157 29.6097 204.108 29.1509L203.5 28.0072C200.518 21.9573 199.564 18.3641 202.433 17.2275C204.221 16.5498 208.128 16.931 210.05 16.1474C210.481 15.9145 211.307 14.7073 211.647 14.5167C215.935 12.4836 223.997 10.1046 228.421 12.3706C229.756 12.9989 228.421 16.4369 228.915 17.757C229.198 18.35 230.187 19.3454 231.318 19.6842C240.588 22.1762 249.858 21.7667 256.662 24.9788C260.725 26.8848 263.827 29.8851 267.487 33.0477C270.624 35.8362 266.9 38.9847 270.137 39.9377C267.932 40.2271 266.053 40.4671 265.671 39.3164C265.565 39.0341 264.901 38.0246 264.59 37.7281C262.159 35.4196 259.333 31.8617 255.97 30.7251C254.225 30.0827 253.461 30.6333 251.617 30.1462L249.441 29.4121C247.095 28.7556 246.926 28.9815 244.629 28.5085C243.605 28.3038 241.28 27.0542 240.277 26.9483C235.691 26.2636 233.119 28.099 228.922 26.9483C226.986 26.3765 224.492 23.3127 222.931 22.4868C220.987 21.3855 219.2 21.0043 217.024 20.3054C216.14 20.0654 215.695 20.0654 215.038 20.4043C213.844 21.1031 214.24 22.1691 214.862 23.0586C215.222 23.5316 215.526 24.3434 215.943 24.5976C217.469 25.6988 220.514 25.6988 221.348 27.2943C223.736 32.0099 220.231 33.6548 219.723 35.0596C219.468 35.9067 218.804 36.5774 219.723 37.7281C220.224 38.3352 221.305 39.0905 221.913 39.3164C224.096 40.2695 225.827 39.9094 227.869 40.9684C229.318 41.7308 230.844 44.3569 232.724 44.7663C237.048 45.7052 238.079 42.5073 240.277 42.0273C243.407 41.3354 245.336 42.9873 248.932 42.0273C250.119 41.7096 250.784 40.2977 251.624 39.9094C253.695 38.8152 255.751 38.6529 257.037 39.3164C257.037 39.3164 258.429 39.9942 256.479 40.9684C255.362 41.5825 254.415 41.5825 253.257 42.1614C252.472 42.585 251.78 43.6792 251.646 43.8627C251.278 44.611 251.024 45.7405 251.045 45.8182C251.384 46.4323 251.85 46.7712 252.147 46.9265C255.913 48.2254 259.757 45.7899 262.979 45.2958C265.374 44.9146 272.065 45.2958 273.987 46.7641C273.987 46.7641 275.768 47.1242 274.616 50.3644C273.903 52.3128 270.822 53.7318 269.663 55.3766C268.978 56.3085 268.229 58.0874 267.529 58.991C266.392 60.4594 266.194 60.4171 265.042 61.7725L264.251 62.9231C263.784 64.3068 258.28 68.9731 257.242 70.5332C256.62 71.465 256.33 72.4392 255.68 73.4417C254.691 74.8536 253.97 75.0865 253.469 75.9407C251.879 78.2209 248.784 82.8448 246.219 84.0096C245.074 84.4897 243.463 83.9602 241.874 83.6425C240.786 83.346 239.613 81.3482 238.666 80.9176C234.886 79.1951 230.682 79.6751 227.354 77.6773C225.686 76.689 224.153 73.7735 222.966 72.291C222.182 71.2674 221.468 69.4813 220.267 69.0084C218.331 68.3448 213.639 68.9589 212.721 70.6391C210.94 74.0347 215.589 82.7601 215.978 86.3392C216.253 89.3889 214.854 90.7726 215.978 93.321C216.494 94.627 218.522 94.9659 219.193 96.0318C222.118 100.635 219.567 107.143 220.26 113.292C220.535 115.205 221.673 117.584 221.341 120.344C220.881 124.651 215.335 128.364 217.575 134.908C217.652 135.183 218.705 135.939 218.776 136.016C219.631 136.433 220.987 136.263 221.906 135.995C223.701 135.367 225.446 131.767 227.332 130.609C227.523 130.383 228.138 130.079 228.47 130.079C228.675 129.705 229.184 129.677 229.48 129.536C230.272 128.936 230.59 128.915 231.07 127.912C231.833 126.161 231.572 124.425 232.151 121.933C232.717 119.871 234.624 116.208 234.872 113.829C235.529 107.221 230.738 94.3023 234.179 92.1703C235.493 91.3585 236.801 89.7913 239.069 89.4524C240.079 89.2054 243.336 90.2078 244.742 90.1725C244.721 90.2078 244.707 90.2219 244.707 90.2219C242.948 94.3587 249.427 105.16 248.918 111.118C247.653 125.632 238.164 133.651 229.975 141.396C229.035 142.32 229.834 143.365 230.54 144.092C232.158 145.624 236.101 144.947 238.15 144.622C241.111 144.015 242.439 142.68 244.629 141.932C245.428 141.607 246.41 142.116 247.307 141.932C249.54 141.318 251.448 138.297 252.713 136.461C252.713 136.461 255.362 133.623 255.913 137.386L255.97 137.598C255.97 141.106 255.355 144.947 255.97 148.37C256.613 152.43 264.011 164.593 267.854 165.144C276.856 166.464 267.642 155.14 267.275 154.336C265.805 150.905 264.378 144.812 264.583 140.309C264.625 138.657 266.003 135.332 266.194 133.779C266.279 133.009 265.883 131.223 266.194 130.595C266.9 129.155 271.67 128.689 272.694 126.79C272.97 126.246 272.567 125.272 272.694 124.658C272.92 123.352 273.86 120.945 274.871 119.822C275.514 119.017 276.439 118.558 277.57 119.822C278.495 120.86 278.736 123.274 280.29 125.018L281.618 126.472C283.215 127.503 285.794 126.133 285.116 126.296C286.79 125.837 286.593 124.135 287.292 123.542C287.405 123.451 288.345 123.034 288.345 123.034C292.252 119.017 283.583 115.396 283.484 111.676C283.399 107.539 284.409 102.759 282.982 98.1849C282.622 97.0484 280.502 95.4318 280.255 94.4152C279.668 91.8173 281.025 89.0642 281.336 87.4123C281.943 83.9602 280.756 78.6515 281.901 77.1338C282.537 76.3008 283.59 75.6795 285.667 76.0395C287.038 76.3007 287.956 78.5315 288.903 79.2869C292.443 82.1318 296.548 83.7202 302.434 83.0425C303.162 83.0284 303.769 81.92 303.897 81.6165C304.271 80.5364 304.2 79.1528 303.508 78.2068C301.388 75.3618 293.15 73.1875 292.711 71.7686C292.386 70.7097 291.079 69.2978 292.514 68.5848C291.729 69.0366 297.58 68.4224 299.699 67.9706C302.455 67.3635 302.653 64.6315 304.561 63.6785C307.253 62.2595 311.202 63.495 312.707 60.9818C313.605 59.3511 312.905 57.0356 313.76 55.539C314.827 53.6329 318.035 53.2517 319.688 51.734C320.19 51.2963 319.964 49.6232 319.844 49.0938M102.644 175.351C101.584 174.18 102.481 171.885 104.439 170.911C108.049 169.203 109.54 171.179 110.324 172.111C113.822 177.554 118.365 184.592 121.735 187.381C118.619 187.684 106.996 184.148 102.651 175.351M132.376 229.949C130.483 229.949 118.457 219.826 120.266 213.543C123.834 216.176 131.839 221.753 132.85 221.64C133.924 222.275 134.772 229.243 132.376 229.949ZM146.359 229.984C144.791 228.608 133.132 216.296 136.044 210.592C139.244 213.797 148.154 221.993 151.334 222.791C152.231 225.127 152.097 231.566 146.359 229.991M147.617 182.997C149.652 186.054 152.457 187.847 152.309 194.433C152.111 196.036 152.634 196.367 153.983 196.233C155.206 195.88 154.542 188.291 158.223 188.786C161.353 189.244 159.233 193.593 160.781 198.478C161.353 200.222 164.886 206.484 163.946 217.214C163.854 219.981 158.583 223.581 155.58 221.478C153.107 219.981 153.107 218.153 151.694 206.801C151.093 200.109 142.926 197.8 139.463 194.758C135.994 192.209 137.972 190.946 137.337 186.308C135.337 179.58 127.501 176.446 130.122 171.97C130.935 170.862 131.726 169.803 134.213 170.749C134.355 174.074 142.304 176.657 147.617 183.004M91.9394 161.79C91.7344 161.896 91.6991 161.917 92.01 161.769C92.0029 161.769 91.9676 161.783 91.9394 161.79C92.7448 161.437 96.2353 159.807 97.1538 159.461C100.849 158.155 102.813 160.124 106.205 158.232C107.003 157.745 107.901 156.446 108.643 155.839C109.279 155.26 110.452 155.331 111.208 154.787C113.087 153.524 116.592 149.5 119.015 149.069C120.407 148.808 120.4 149.168 121.107 149.246C121.107 149.38 122.138 149.027 121.87 151.102C121.227 155.105 130.624 151.06 136.807 152.521C141.004 153.531 145.095 154.95 144.014 157.654C144.162 157.371 142.784 158.479 142.459 158.684C139.569 160.781 137.315 158.479 135.853 158.282C133.33 157.978 131.536 158.755 128.95 158.423C128.95 158.395 125.848 157.392 125.848 157.392C123.89 157.301 121.064 158.31 119.566 158.423C116.726 158.649 115.355 157.646 112.804 157.915C111.561 158.049 109.554 159.694 108.65 160.011C107.816 160.315 106.848 160.604 106.035 160.858C105.47 160.986 104.071 161.769 103.421 162.066C100.849 163.329 99.316 163.329 96.1293 164.162L94.2852 164.656C90.3284 165.193 90.717 162.475 91.9464 161.783M82.3229 177.208C86.5765 176.199 87.8342 177.293 89.8691 182.136C91.3741 184.995 94.5466 188.793 95.7619 190.593C90.8583 191.15 83.0578 184.472 80.8744 180.808C79.4896 179.008 81.6093 177.582 82.3229 177.208ZM28.1855 156.941C33.7815 155.38 38.7346 153.764 40.7977 152.564C41.5467 152.514 42.2745 152.514 43.0234 152.479C43.3414 153.954 43.9208 155.479 44.8111 156.962C45.0089 157.293 45.1997 157.569 45.3834 157.823C41.9919 157.901 35.1522 157.477 28.1855 156.941ZM39.8509 166.725C42.7196 165.002 45.4752 163.139 48.0825 161.219C49.2695 162.623 50.5767 163.915 52.0252 165.144C50.5131 165.546 45.7579 166.146 39.8509 166.725Z" fill="white"/>
<path d="M91.9606 161.713C91.9606 161.713 92.0242 161.692 92.0312 161.692C91.7203 161.84 91.7557 161.819 91.9606 161.713Z" fill="white"/>
</svg>
