<svg width="current" height="current" viewBox="0 0 320 320" fill="none" xmlns="http://www.w3.org/2000/svg">
  <g clip-path="url(#clip0_402_2)">
    <path d="M136.259 192.416C142.757 178.475 139.508 166.107 131.857 154.263C126.616 145.983 120.013 138.646 114.877 130.261C109.217 121.142 107.435 111.604 111.103 101.332C111.313 100.703 111.628 100.074 111.942 99.3402C114.038 94.4139 117.078 91.8983 123.157 92.0032C146.845 92.4224 170.533 92.2128 194.117 92.0032C196.947 92.0032 197.366 92.8417 197.366 95.462C197.366 126.592 197.366 157.722 197.366 188.852C197.366 191.368 196.947 192.311 194.117 192.311C175.879 192.206 157.746 192.311 139.508 192.311C138.565 192.311 137.726 192.311 136.364 192.311L136.259 192.416Z" fill="current"/>
    <path d="M263.295 192.416C268.431 189.167 268.955 184.45 269.479 179.838C270.212 173.654 270.108 167.365 270.108 161.076C270.108 139.17 270.108 117.159 270.108 95.2526C270.108 92.9467 270.632 92.213 273.042 92.213C287.716 92.3178 302.391 92.3178 317.065 92.213C319.266 92.213 319.999 92.6322 319.999 95.0429C319.999 126.592 319.999 158.141 319.999 189.691C319.999 191.263 320.104 192.521 317.694 192.521C299.875 192.416 282.057 192.521 263.295 192.521L263.295 192.416Z" fill="current"/>
    <path d="M42.45 92.3176C38.8863 99.445 36.79 106.468 35.7418 113.805C33.8552 127.535 37.9429 139.694 45.6992 150.909C50.5207 157.827 55.6566 164.43 59.1155 172.186C61.7359 178.161 62.4696 184.135 60.6877 190.529C60.2685 191.996 59.6396 192.625 57.9626 192.625C39.3055 192.625 20.7533 192.625 2.09629 192.625C0.524074 192.521 -2.2908e-08 192.101 -1.00795e-07 190.319C-1.49818e-06 158.351 -2.89557e-06 126.382 -4.28838e-06 94.5187C-4.35252e-06 93.0513 0.209625 92.3176 1.88666 92.3176C15.1981 92.3176 28.6144 92.3176 42.45 92.3176Z" fill="current"/>
    <path d="M79.3448 227.109C84.6903 221.554 87.8348 215.58 88.8829 208.557C89.9311 201.325 89.1974 194.512 85.8433 187.909C82.1748 180.677 77.0389 174.388 72.8463 167.47C66.6622 157.303 62.3648 146.507 62.5744 134.348C62.6792 125.544 65.7189 117.578 70.9596 110.451C71.5885 109.612 72.2174 108.564 73.58 108.564C84.9 108.564 96.22 108.564 108.064 108.564C104.291 112.652 101.356 116.74 99.6788 121.561C94.8574 135.082 98.0018 147.345 105.339 158.98C109.636 165.688 114.248 172.291 118.021 179.314C126.092 194.198 126.511 209.081 118.546 224.07C117.288 226.166 116.135 227.109 113.514 227.109C102.404 226.9 91.2937 227.109 79.3448 227.109Z" fill="current"/>
    <path d="M243.59 160.657C243.59 176.694 243.59 192.835 243.59 208.872C243.59 216.418 239.082 222.393 232.165 224.699C225.457 226.9 218.329 224.699 214.032 219.039C211.516 215.789 210.573 212.016 210.573 207.928C210.573 201.011 210.573 194.198 210.573 187.28C210.573 162.124 210.573 136.969 210.573 111.813C210.573 109.088 211.411 108.564 213.927 108.564C222.836 108.774 231.745 108.774 240.655 108.564C243.275 108.564 243.799 109.298 243.694 111.813C243.59 128.06 243.694 144.411 243.694 160.657L243.59 160.657Z" fill="current"/>
  </g>
  <defs>
    <clipPath id="clip0_402_2">
      <rect width="320" height="320" fill="white"/>
    </clipPath>
  </defs>
</svg>
