<svg width="320" height="320" viewBox="0 0 320 320" fill="none" xmlns="http://www.w3.org/2000/svg">
<path d="M194.175 107.543C194.145 73.47 221.645 45.8223 255.601 45.7928C263.825 45.7928 271.665 47.4139 278.827 50.332C224.357 0.194657 139.557 1.57999 86.7964 54.488C35.6864 105.745 33.0042 186.979 78.6318 241.39C90.4219 225.916 106.574 208.024 126.441 194.024C141.915 183.088 163.432 172.182 180.734 170.502C197.093 168.94 221.498 170.502 236.265 177.547C224.711 165.727 212.538 152.464 206.554 144.535C198.802 134.248 194.204 121.426 194.175 107.514V107.543Z" fill="url(#paint0_linear_413_59)"/>
<path d="M189.842 152.64L124.672 27.4884C112.676 33.295 101.328 40.8996 91.0704 50.3906L189.429 152.493L189.842 152.64Z" fill="url(#paint1_linear_413_59)"/>
<path d="M190.196 152.758L198.596 14.4312C187.366 13.3406 176.018 13.5764 164.847 15.227L190.078 152.729L190.196 152.788V152.758Z" fill="url(#paint2_linear_413_59)"/>
<path d="M189.429 152.464L55.4348 102.886C50.8957 114.765 48.066 127.174 46.9165 139.671L189.783 152.817L189.429 152.464Z" fill="url(#paint3_linear_413_59)"/>
<path d="M47.8008 172.507C49.2156 182.174 51.662 191.695 55.1106 200.95L189.4 153.171L47.8303 172.507H47.8008Z" fill="url(#paint4_linear_413_59)"/>
<path d="M76.097 275.257C72.0589 271.749 65.1617 265.235 58.9719 257.277C30.6167 225.561 -1.83546 142.265 51.8978 66.6312C74.0632 35.4464 105.896 14.4306 137.553 5.88278C211.359 -14.0425 268.128 20.7678 294.125 48.8576C297.014 51.982 296.601 55.9906 294.42 57.8181C291.207 60.5298 288.289 59.115 281.804 57.2581C271.694 54.34 262.97 53.6621 253.626 54.8706C231.932 57.6707 213.186 77.8023 215.809 105.892C218.226 131.536 238.034 150.046 251.917 162.249C300.757 205.135 284.487 251.205 280.537 261.315C267.096 295.683 232.551 319.941 187.749 320C169.15 320 142.239 315.225 115.181 298.129C114.149 297.658 113.088 296.272 114.385 293.973C116.449 288.756 125.055 273.518 128.769 269.096C142.21 284.6 164.906 299.191 190.107 300.075C224.534 301.283 246.699 282.625 254.805 258.986C263.913 232.429 254.157 205.341 228.395 180.965C206.201 159.92 186.393 140.467 185.185 107.071C183.652 64.2731 220.879 38.8361 255.513 40.4867C256.544 40.5456 207.615 5.32275 144.863 26.427C114.149 36.7728 95.7864 54.9295 86.9733 65.2458C85.647 66.8375 86.5017 68.046 86.9733 68.6944C87.946 70.0798 109.316 99.8202 109.316 99.8202L70.8209 91.0072C70.8209 91.0072 69.2293 90.624 68.4334 91.9504C56.2307 113.055 38.2803 174.068 78.6024 229.57C78.6024 229.57 112.823 175.218 180.881 170.502C185.421 170.207 184.831 171.828 181.854 172.889C121.076 195.32 97.1423 239.945 81.6678 274.372C80.7246 276.495 78.1897 277.143 76.1265 275.316L76.097 275.257Z" fill="#003B71"/>
<path d="M138.732 233.284C138.732 233.284 142.534 231.575 143.595 230.985V257.366H148.4L148.341 226.358L147.574 225.857L147.339 225.974C143.86 227.714 140.323 229.335 137.317 230.573L138.732 233.314V233.284Z" fill="white"/>
<path d="M164.08 241.832C167.942 241.832 169.828 243.807 169.828 247.904C169.828 252.089 167.234 254.801 163.226 254.801C160.308 254.801 158.333 252.856 157.625 252.03L157.036 251.352L155.886 255.449L156.24 255.626C157.891 256.422 160.013 257.218 163.137 257.218C169.946 257.218 174.868 253.062 174.868 247.344C174.868 242.127 170.83 240.623 168.384 240.181C171.066 239.032 173.483 236.585 173.454 232.871C173.454 228.509 170.005 225.856 164.523 225.827C159.865 225.827 157.478 228.863 157.478 228.863L159.512 232.4L159.865 231.398C160.425 229.806 162.135 228.185 164.346 228.185C166.321 228.185 168.59 229.482 168.62 233.137C168.62 235.996 167.824 239.385 164.11 239.385L161.634 239.209V242.127C161.634 242.127 163.019 241.773 164.11 241.773L164.08 241.832Z" fill="white"/>
<path d="M181.382 251.028L182.65 256.039C182.65 256.039 184.625 257.189 187.425 257.159C195.383 257.13 200.924 249.673 200.924 238.973C200.924 227.065 193.644 225.768 190.52 225.798C184.477 225.798 180.233 229.895 180.262 235.76C180.262 241.478 183.74 245.015 189.341 245.015C192.17 245.015 194.381 243.895 196.032 241.803C195.707 248.464 193.084 254.536 187.661 254.595C183.298 254.624 181.412 251.028 181.412 251.028H181.382ZM190.048 242.392C186.717 242.392 185.096 240.211 185.096 235.731C185.096 231.192 187.248 228.156 190.49 228.156C193.703 228.156 195.884 230.72 195.884 234.552C195.884 238.442 193.88 242.363 190.048 242.363V242.392Z" fill="white"/>
<path d="M219.848 239.297C222.559 238.089 224.298 235.642 224.298 232.724C224.298 229.512 221.97 225.768 215.367 225.768C210.356 225.768 206.613 229.01 206.613 233.255C206.613 236.438 208.765 238.678 211.093 239.533C207.232 241.066 205.051 244.013 205.08 248.022C205.08 253.475 209.236 257.13 215.426 257.13C221.439 257.13 225.772 252.856 225.772 246.99C225.772 241.567 221.763 239.828 219.877 239.297H219.848ZM211.182 233.314C211.182 232.105 211.477 228.126 215.426 228.126C219.317 228.126 219.73 231.752 219.73 233.284C219.73 234.493 219.435 238.472 215.426 238.472C211.506 238.472 211.182 234.522 211.182 233.314ZM215.397 254.742C212.125 254.742 209.885 251.972 209.885 247.816C209.885 243.66 212.096 240.889 215.367 240.859C218.639 240.859 220.85 243.63 220.85 247.786C220.85 252.001 218.727 254.742 215.367 254.742H215.397Z" fill="white"/>
<defs>
<linearGradient id="paint0_linear_413_59" x1="210.84" y1="161.857" x2="96.9278" y2="97.6222" gradientUnits="userSpaceOnUse">
<stop stop-color="white"/>
<stop offset="0.2" stop-color="#E7EB8E"/>
<stop offset="0.76" stop-color="#AACC03"/>
<stop offset="1" stop-color="#8DC21F"/>
</linearGradient>
<linearGradient id="paint1_linear_413_59" x1="201.297" y1="119.512" x2="95.07" y2="48.6658" gradientUnits="userSpaceOnUse">
<stop stop-color="#E5EA90"/>
<stop offset="0.02" stop-color="#E1E889"/>
<stop offset="0.09" stop-color="#D2E06E"/>
<stop offset="0.15" stop-color="#CADB5D"/>
<stop offset="0.2" stop-color="#C7DA58"/>
<stop offset="0.4" stop-color="#A1C710"/>
<stop offset="0.74" stop-color="#7CB923"/>
<stop offset="1" stop-color="#65B12F"/>
</linearGradient>
<linearGradient id="paint2_linear_413_59" x1="215.743" y1="97.8897" x2="109.516" y2="27.0137" gradientUnits="userSpaceOnUse">
<stop stop-color="#E5EA90"/>
<stop offset="0.02" stop-color="#E1E889"/>
<stop offset="0.09" stop-color="#D2E06E"/>
<stop offset="0.15" stop-color="#CADB5D"/>
<stop offset="0.2" stop-color="#C7DA58"/>
<stop offset="0.4" stop-color="#A1C710"/>
<stop offset="0.74" stop-color="#7CB923"/>
<stop offset="1" stop-color="#65B12F"/>
</linearGradient>
<linearGradient id="paint3_linear_413_59" x1="163.432" y1="176.299" x2="57.1752" y2="105.423" gradientUnits="userSpaceOnUse">
<stop stop-color="#E5EA90"/>
<stop offset="0.02" stop-color="#E1E889"/>
<stop offset="0.09" stop-color="#D2E06E"/>
<stop offset="0.15" stop-color="#CADB5D"/>
<stop offset="0.2" stop-color="#C7DA58"/>
<stop offset="0.4" stop-color="#A1C710"/>
<stop offset="0.74" stop-color="#7CB923"/>
<stop offset="1" stop-color="#65B12F"/>
</linearGradient>
<linearGradient id="paint4_linear_413_59" x1="150.368" y1="195.857" x2="44.1416" y2="125.01" gradientUnits="userSpaceOnUse">
<stop stop-color="#E5EA90"/>
<stop offset="0.02" stop-color="#E1E889"/>
<stop offset="0.09" stop-color="#D2E06E"/>
<stop offset="0.15" stop-color="#CADB5D"/>
<stop offset="0.2" stop-color="#C7DA58"/>
<stop offset="0.4" stop-color="#A1C710"/>
<stop offset="0.74" stop-color="#7CB923"/>
<stop offset="1" stop-color="#65B12F"/>
</linearGradient>
</defs>
</svg>
